# xmcd CD database file
#
# Track frame offsets:
#	150
#	5099
#	26354
#	48530
#	65659
#	87060
#	98152
#	119192
#	140907
#	164351
#	182063
#	202381
#	226373
#	235672
#	255599
#	275102
#
# Disc length: 4014 seconds
#
# Revision: 5
# Processed by: cddbd v1.5.2PL0 Copyright (c) Steve Scherf et al.
# Submitted via: CDex 1.70beta2
#
DISCID=f00fac10
DTITLE=Schiller - Atemlos (Super Deluxe Edition) Disc 1
DYEAR=2010
DGENRE=New Age
TTITLE0=Willkommen
TTITLE1=Tiefblau
TTITLE2=Playing With Madness (Mit Mia Bergström)
TTITLE3=Atemlos
TTITLE4=Try (Mit Nadia Ali)
TTITLE5=Unruhig Herz (Mit Anna Maria Mühe)
TTITLE6=Leidenschaft (Mit Jaki Liebezeit)
TTITLE7=Blind (Mit Anggun)
TTITLE8=Soho
TTITLE9=Let It Rise (Mit Midge Ure)
TTITLE10=Polarstern
TTITLE11=Don't Go (Mit Kate Havnevik)
TTITLE12=Moments
TTITLE13=Addicted (Mit Lenka)
TTITLE14=Morgenland
TTITLE15=Lost Again (Mit Odette Di Maio)
EXTD=YEAR: 2010
EXTT0=
EXTT1=
EXTT2=
EXTT3=
EXTT4=
EXTT5=
EXTT6=
EXTT7=
EXTT8=
EXTT9=
EXTT10=
EXTT11=
EXTT12=
EXTT13=
EXTT14=
EXTT15=
PLAYORDER=
